<svg xmlns="http://www.w3.org/2000/svg" xmlns:xlink="http://www.w3.org/1999/xlink" width="100" zoomAndPan="magnify" viewBox="0 0 75 74.999997" height="100" preserveAspectRatio="xMidYMid meet" version="1.0">
  <defs>
    <clipPath id="b40c37a005">
      <path d="M 7.5 16.835938 L 67.5 16.835938 L 67.5 58.085938 L 7.5 58.085938 Z M 7.5 16.835938 " clip-rule="nonzero"/>
    </clipPath>
  </defs>
  <rect x="-7.5" width="90" fill="#ffffff" y="-7.5" height="89.999996" fill-opacity="1"/>
  <rect x="-7.5" width="90" fill="#ffffff" y="-7.5" height="89.999996" fill-opacity="1"/>
  <g clip-path="url(#b40c37a005)">
    <path fill="#7e64ed" d="M 63.628906 58.15625 L 11.355469 58.15625 C 9.238281 58.15625 7.523438 56.441406 7.523438 54.324219 L 7.523438 20.671875 C 7.523438 18.554688 9.238281 16.835938 11.355469 16.835938 L 27.222656 16.835938 C 28.675781 16.835938 30.089844 17.453125 31.074219 18.519531 L 34.992188 22.753906 C 35.640625 23.453125 36.574219 23.871094 37.542969 23.871094 L 63.644531 23.871094 C 65.761719 23.871094 67.476562 25.589844 67.476562 27.707031 L 67.476562 54.339844 C 67.460938 56.441406 65.746094 58.15625 63.628906 58.15625 Z M 11.355469 18.621094 C 10.222656 18.621094 9.304688 19.539062 9.304688 20.671875 L 9.304688 54.339844 C 9.304688 55.472656 10.222656 56.390625 11.355469 56.390625 L 63.628906 56.390625 C 64.761719 56.390625 65.675781 55.472656 65.675781 54.339844 L 65.675781 27.722656 C 65.675781 26.589844 64.761719 25.671875 63.628906 25.671875 L 37.523438 25.671875 C 36.074219 25.671875 34.65625 25.054688 33.675781 23.988281 L 29.757812 19.753906 C 29.109375 19.054688 28.175781 18.636719 27.207031 18.636719 L 11.355469 18.636719 Z M 11.355469 18.621094 " fill-opacity="1" fill-rule="nonzero"/>
  </g>
  <path fill="#7e64ed" d="M 63.3125 25.65625 C 62.828125 25.65625 62.425781 25.253906 62.425781 24.773438 L 62.425781 21.972656 C 62.425781 21.421875 61.976562 20.988281 61.445312 20.988281 L 31.40625 20.988281 C 30.925781 20.988281 30.523438 20.585938 30.523438 20.105469 C 30.523438 19.621094 30.925781 19.222656 31.40625 19.222656 L 61.445312 19.222656 C 62.960938 19.222656 64.210938 20.453125 64.210938 21.988281 L 64.210938 24.789062 C 64.210938 25.273438 63.8125 25.65625 63.3125 25.65625 Z M 63.3125 25.65625 " fill-opacity="1" fill-rule="nonzero"/>
</svg>