<svg xmlns="http://www.w3.org/2000/svg" xmlns:xlink="http://www.w3.org/1999/xlink" width="100" zoomAndPan="magnify" viewBox="0 0 75 74.999997" height="100" preserveAspectRatio="xMidYMid meet" version="1.0">
  <defs>
    <clipPath id="bed5ab8e68">
      <path d="M 7.5 7.5 L 67.5 7.5 L 67.5 67.5 L 7.5 67.5 Z M 7.5 7.5 " clip-rule="nonzero"/>
    </clipPath>
  </defs>
  <rect x="-7.5" width="90" fill="#ffffff" y="-7.5" height="89.999996" fill-opacity="1"/>
  <rect x="-7.5" width="90" fill="#ffffff" y="-7.5" height="89.999996" fill-opacity="1"/>
  <g clip-path="url(#bed5ab8e68)">
    <path fill="#7e64ed" d="M 67.5 66.492188 C 67.5 67.046875 67.050781 67.5 66.492188 67.5 L 8.507812 67.5 C 7.953125 67.5 7.5 67.050781 7.5 66.492188 L 7.5 8.507812 C 7.5 7.949219 7.949219 7.5 8.507812 7.5 C 9.066406 7.5 9.515625 7.949219 9.515625 8.507812 L 9.515625 65.488281 L 66.496094 65.488281 C 67.050781 65.488281 67.503906 65.9375 67.503906 66.496094 Z M 28.621094 37.757812 C 36.746094 46.070312 47.902344 53.519531 61.792969 59.914062 L 59.597656 60.832031 C 59.082031 61.050781 58.839844 61.636719 59.058594 62.148438 C 59.222656 62.535156 59.589844 62.765625 59.988281 62.765625 C 60.117188 62.765625 60.25 62.742188 60.378906 62.6875 L 64.769531 60.839844 C 65.277344 60.628906 65.519531 60.046875 65.3125 59.539062 L 63.417969 54.851562 C 63.207031 54.332031 62.621094 54.085938 62.109375 54.296875 C 61.589844 54.503906 61.347656 55.089844 61.554688 55.605469 L 62.539062 58.035156 C 35.476562 45.5625 19.859375 29.835938 14.816406 9.972656 C 14.679688 9.433594 14.132812 9.109375 13.589844 9.242188 C 13.054688 9.378906 12.726562 9.925781 12.863281 10.464844 C 15.402344 20.480469 20.703125 29.660156 28.621094 37.757812 Z M 28.621094 37.757812 " fill-opacity="1" fill-rule="nonzero"/>
  </g>
</svg>