<svg xmlns="http://www.w3.org/2000/svg" xmlns:xlink="http://www.w3.org/1999/xlink" width="100" zoomAndPan="magnify" viewBox="0 0 75 74.999997" height="100" preserveAspectRatio="xMidYMid meet" version="1.0">
  <defs>
    <clipPath id="315019d30a">
      <path d="M 7.5 19.613281 L 10 19.613281 L 10 55.613281 L 7.5 55.613281 Z M 7.5 19.613281 " clip-rule="nonzero"/>
    </clipPath>
    <clipPath id="024b9539a8">
      <path d="M 7.5 53 L 67.5 53 L 67.5 55.613281 L 7.5 55.613281 Z M 7.5 53 " clip-rule="nonzero"/>
    </clipPath>
    <clipPath id="3625f9efc4">
      <path d="M 65 19.613281 L 67.5 19.613281 L 67.5 55.613281 L 65 55.613281 Z M 65 19.613281 " clip-rule="nonzero"/>
    </clipPath>
    <clipPath id="7d8e30c6db">
      <path d="M 7.5 19.613281 L 39 19.613281 L 39 41 L 7.5 41 Z M 7.5 19.613281 " clip-rule="nonzero"/>
    </clipPath>
    <clipPath id="bec523d230">
      <path d="M 36 19.613281 L 67.5 19.613281 L 67.5 41 L 36 41 Z M 36 19.613281 " clip-rule="nonzero"/>
    </clipPath>
    <clipPath id="4e7d50493a">
      <path d="M 7.5 19.613281 L 67.5 19.613281 L 67.5 22 L 7.5 22 Z M 7.5 19.613281 " clip-rule="nonzero"/>
    </clipPath>
    <clipPath id="06ff970616">
      <path d="M 7.5 34 L 29 34 L 29 55.613281 L 7.5 55.613281 Z M 7.5 34 " clip-rule="nonzero"/>
    </clipPath>
    <clipPath id="ea2ddd0528">
      <path d="M 44 32 L 67.5 32 L 67.5 55.613281 L 44 55.613281 Z M 44 32 " clip-rule="nonzero"/>
    </clipPath>
  </defs>
  <rect x="-7.5" width="90" fill="#ffffff" y="-7.5" height="89.999996" fill-opacity="1"/>
  <rect x="-7.5" width="90" fill="#ffffff" y="-7.5" height="89.999996" fill-opacity="1"/>
  <g clip-path="url(#315019d30a)">
    <path fill="#7e64ed" d="M 9.546875 20.695312 L 9.546875 54.414062 C 9.546875 54.941406 9.117188 55.371094 8.589844 55.371094 C 8.0625 55.371094 7.636719 54.941406 7.636719 54.414062 L 7.636719 20.695312 C 7.636719 20.167969 8.0625 19.742188 8.589844 19.742188 C 9.117188 19.742188 9.546875 20.167969 9.546875 20.695312 Z M 9.546875 20.695312 " fill-opacity="1" fill-rule="nonzero"/>
  </g>
  <g clip-path="url(#024b9539a8)">
    <path fill="#7e64ed" d="M 8.589844 53.460938 L 66.394531 53.460938 C 66.921875 53.460938 67.347656 53.886719 67.347656 54.414062 C 67.347656 54.941406 66.921875 55.371094 66.394531 55.371094 L 8.589844 55.371094 C 8.0625 55.371094 7.636719 54.941406 7.636719 54.414062 C 7.636719 53.886719 8.0625 53.460938 8.589844 53.460938 Z M 8.589844 53.460938 " fill-opacity="1" fill-rule="nonzero"/>
  </g>
  <g clip-path="url(#3625f9efc4)">
    <path fill="#7e64ed" d="M 67.347656 20.695312 L 67.347656 54.414062 C 67.347656 54.941406 66.921875 55.371094 66.394531 55.371094 C 65.867188 55.371094 65.4375 54.941406 65.4375 54.414062 L 65.4375 20.695312 C 65.4375 20.167969 65.867188 19.742188 66.394531 19.742188 C 66.921875 19.742188 67.347656 20.167969 67.347656 20.695312 Z M 67.347656 20.695312 " fill-opacity="1" fill-rule="nonzero"/>
  </g>
  <g clip-path="url(#7d8e30c6db)">
    <path fill="#7e64ed" d="M 9.121094 19.902344 L 38.023438 39.167969 C 38.460938 39.460938 38.582031 40.054688 38.289062 40.492188 C 37.996094 40.933594 37.402344 41.050781 36.960938 40.757812 L 8.0625 21.492188 C 7.621094 21.199219 7.503906 20.605469 7.796875 20.167969 C 8.089844 19.726562 8.683594 19.609375 9.121094 19.902344 Z M 9.121094 19.902344 " fill-opacity="1" fill-rule="nonzero"/>
  </g>
  <g clip-path="url(#bec523d230)">
    <path fill="#7e64ed" d="M 36.960938 39.167969 L 65.863281 19.902344 C 66.304688 19.609375 66.894531 19.726562 67.1875 20.167969 C 67.480469 20.605469 67.363281 21.199219 66.925781 21.492188 L 38.023438 40.757812 C 37.582031 41.050781 36.988281 40.933594 36.699219 40.492188 C 36.40625 40.054688 36.523438 39.460938 36.960938 39.167969 Z M 36.960938 39.167969 " fill-opacity="1" fill-rule="nonzero"/>
  </g>
  <g clip-path="url(#4e7d50493a)">
    <path fill="#7e64ed" d="M 8.589844 19.742188 L 66.394531 19.742188 C 66.921875 19.742188 67.347656 20.167969 67.347656 20.695312 C 67.347656 21.222656 66.921875 21.652344 66.394531 21.652344 L 8.589844 21.652344 C 8.0625 21.652344 7.636719 21.222656 7.636719 20.695312 C 7.636719 20.167969 8.0625 19.742188 8.589844 19.742188 Z M 8.589844 19.742188 " fill-opacity="1" fill-rule="nonzero"/>
  </g>
  <path fill="#7e64ed" d="M 28.699219 32.953125 L 27.320312 34.332031 L 28.945312 35.414062 L 30.320312 34.035156 Z M 28.699219 32.953125 " fill-opacity="1" fill-rule="nonzero"/>
  <g clip-path="url(#06ff970616)">
    <path fill="#7e64ed" d="M 27.320312 34.332031 L 9.546875 52.109375 L 7.914062 53.738281 C 7.542969 54.113281 7.542969 54.71875 7.914062 55.089844 C 8.101562 55.277344 8.34375 55.371094 8.589844 55.371094 L 8.59375 55.371094 L 8.589844 55.371094 L 8.597656 55.371094 L 8.59375 55.371094 C 8.835938 55.371094 9.082031 55.277344 9.265625 55.089844 L 10.898438 53.460938 L 28.945312 35.414062 Z M 9.546875 53.460938 L 10.222656 53.460938 Z M 9.546875 53.460938 " fill-opacity="1" fill-rule="nonzero"/>
  </g>
  <g clip-path="url(#ea2ddd0528)">
    <path fill="#7e64ed" d="M 46.285156 32.953125 L 44.664062 34.035156 L 46.042969 35.414062 L 64.085938 53.460938 L 64.761719 53.460938 L 64.085938 53.460938 L 65.71875 55.089844 C 65.90625 55.277344 66.148438 55.371094 66.394531 55.371094 C 66.636719 55.371094 66.882812 55.277344 67.070312 55.089844 C 67.441406 54.71875 67.441406 54.113281 67.070312 53.738281 L 65.4375 52.109375 L 47.664062 34.332031 Z M 46.285156 32.953125 " fill-opacity="1" fill-rule="nonzero"/>
  </g>
</svg>