<svg xmlns="http://www.w3.org/2000/svg" xmlns:xlink="http://www.w3.org/1999/xlink" width="100" zoomAndPan="magnify" viewBox="0 0 75 74.999997" height="100" preserveAspectRatio="xMidYMid meet" version="1.0">
  <defs>
    <filter x="0%" y="0%" width="100%" height="100%" id="9f00843e1f">
      <feColorMatrix values="0 0 0 0 1 0 0 0 0 1 0 0 0 0 1 0 0 0 1 0" color-interpolation-filters="sRGB"/>
    </filter>
    <clipPath id="1d0d7b8077">
      <path d="M 7.5 7.835938 L 67 7.835938 L 67 67 L 7.5 67 Z M 7.5 7.835938 " clip-rule="nonzero"/>
    </clipPath>
    <mask id="48cd79d745">
      <g filter="url(#9f00843e1f)">
        <rect x="-7.5" width="90" fill="#000000" y="-7.5" height="89.999996" fill-opacity="0.96"/>
      </g>
    </mask>
    <clipPath id="13ec8a07a3">
      <path d="M 1 1 L 59.71875 1 L 59.71875 59.71875 L 1 59.71875 Z M 1 1 " clip-rule="nonzero"/>
    </clipPath>
    <clipPath id="bc9242ede5">
      <rect x="0" width="60" y="0" height="60"/>
    </clipPath>
  </defs>
  <rect x="-7.5" width="90" fill="#ffffff" y="-7.5" height="89.999996" fill-opacity="1"/>
  <rect x="-7.5" width="90" fill="#ffffff" y="-7.5" height="89.999996" fill-opacity="1"/>
  <g clip-path="url(#1d0d7b8077)">
    <g mask="url(#48cd79d745)">
      <g transform="matrix(1, 0, 0, 1, 7, 7)">
        <g clip-path="url(#bc9242ede5)">
          <g clip-path="url(#13ec8a07a3)">
            <path fill="#7e64ed" d="M 29.035156 1.074219 C 38.246094 0.839844 45.964844 4.074219 52.199219 10.78125 C 58.140625 17.710938 60.488281 25.726562 59.238281 34.824219 C 57.84375 42.886719 53.859375 49.316406 47.292969 54.113281 C 40.964844 58.464844 33.972656 60.160156 26.320312 59.191406 C 17.277344 57.734375 10.308594 53.164062 5.421875 45.484375 C 1.820312 39.414062 0.515625 32.875 1.5 25.871094 C 3.046875 16.882812 7.667969 9.984375 15.355469 5.171875 C 19.578125 2.671875 24.140625 1.304688 29.035156 1.074219 Z M 29.488281 3.992188 C 37.402344 3.917969 44.097656 6.703125 49.582031 12.339844 C 54.613281 17.929688 56.945312 24.5 56.574219 32.058594 C 56.050781 38.496094 53.570312 44.027344 49.128906 48.65625 C 48.675781 49.082031 48.214844 49.503906 47.746094 49.914062 C 36.714844 36.363281 25.699219 22.800781 14.703125 9.222656 C 19.097656 6.003906 24.027344 4.257812 29.488281 3.992188 Z M 12.386719 11.132812 C 23.386719 24.652344 34.375 38.183594 45.359375 51.722656 C 45.390625 51.765625 45.382812 51.796875 45.332031 51.824219 C 39.632812 55.679688 33.363281 57.148438 26.523438 56.222656 C 19.796875 55.109375 14.273438 51.949219 9.949219 46.742188 C 5.273438 40.742188 3.429688 33.949219 4.414062 26.375 C 5.386719 20.375 8.042969 15.296875 12.386719 11.132812 Z M 12.386719 11.132812 " fill-opacity="1" fill-rule="evenodd"/>
          </g>
        </g>
      </g>
    </g>
  </g>
</svg>