<svg xmlns="http://www.w3.org/2000/svg" xmlns:xlink="http://www.w3.org/1999/xlink" width="100" zoomAndPan="magnify" viewBox="0 0 75 74.999997" height="100" preserveAspectRatio="xMidYMid meet" version="1.0">
  <defs>
    <clipPath id="7df69a601c">
      <path d="M 9.148438 9.148438 L 66.042969 9.148438 L 66.042969 66.042969 L 9.148438 66.042969 Z M 9.148438 9.148438 " clip-rule="nonzero"/>
    </clipPath>
    <clipPath id="06a6611678">
      <path d="M 37.59375 9.148438 C 21.886719 9.148438 9.148438 21.886719 9.148438 37.59375 C 9.148438 53.304688 21.886719 66.042969 37.59375 66.042969 C 53.304688 66.042969 66.042969 53.304688 66.042969 37.59375 C 66.042969 21.886719 53.304688 9.148438 37.59375 9.148438 Z M 37.59375 9.148438 " clip-rule="nonzero"/>
    </clipPath>
    <clipPath id="e6fda96986">
      <path d="M 0.148438 0.148438 L 57.042969 0.148438 L 57.042969 57.042969 L 0.148438 57.042969 Z M 0.148438 0.148438 " clip-rule="nonzero"/>
    </clipPath>
    <clipPath id="7b6842981d">
      <path d="M 28.59375 0.148438 C 12.886719 0.148438 0.148438 12.886719 0.148438 28.59375 C 0.148438 44.304688 12.886719 57.042969 28.59375 57.042969 C 44.304688 57.042969 57.042969 44.304688 57.042969 28.59375 C 57.042969 12.886719 44.304688 0.148438 28.59375 0.148438 Z M 28.59375 0.148438 " clip-rule="nonzero"/>
    </clipPath>
    <clipPath id="2e056828dd">
      <rect x="0" width="58" y="0" height="58"/>
    </clipPath>
    <clipPath id="8a295afe49">
      <path d="M 7.5 7.5 L 67.5 7.5 L 67.5 67.5 L 7.5 67.5 Z M 7.5 7.5 " clip-rule="nonzero"/>
    </clipPath>
  </defs>
  <g clip-path="url(#7df69a601c)">
    <g clip-path="url(#06a6611678)">
      <g transform="matrix(1, 0, 0, 1, 9, 9)">
        <g clip-path="url(#2e056828dd)">
          <g clip-path="url(#e6fda96986)">
            <g clip-path="url(#7b6842981d)">
              <path fill="#1a111f" d="M 0.148438 0.148438 L 57.042969 0.148438 L 57.042969 57.042969 L 0.148438 57.042969 Z M 0.148438 0.148438 " fill-opacity="1" fill-rule="nonzero"/>
            </g>
          </g>
        </g>
      </g>
    </g>
  </g>
  <g clip-path="url(#8a295afe49)">
    <path fill="#7e64ed" d="M 37.5 67.5 C 20.953125 67.5 7.5 54.046875 7.5 37.5 C 7.5 20.953125 20.953125 7.5 37.5 7.5 C 54.046875 7.5 67.5 20.953125 67.5 37.5 C 67.5 54.046875 54.046875 67.5 37.5 67.5 Z M 37.5 9.28125 C 21.9375 9.28125 9.28125 21.9375 9.28125 37.5 C 9.28125 53.0625 21.9375 65.71875 37.5 65.71875 C 53.0625 65.71875 65.71875 53.0625 65.71875 37.5 C 65.71875 21.9375 53.0625 9.28125 37.5 9.28125 Z M 37.5 9.28125 " fill-opacity="1" fill-rule="nonzero"/>
  </g>
  <path fill="#7e64ed" d="M 40.261719 45.492188 L 37 45.492188 L 37 36.5625 L 37.03125 35.097656 L 37.078125 33.488281 C 36.53125 34.035156 36.15625 34.394531 35.953125 34.550781 L 34.175781 35.96875 L 32.597656 34.003906 L 37.578125 30.039062 L 40.261719 30.039062 Z M 40.261719 45.492188 " fill-opacity="1" fill-rule="nonzero"/>
</svg>