<svg xmlns="http://www.w3.org/2000/svg" xmlns:xlink="http://www.w3.org/1999/xlink" width="100" zoomAndPan="magnify" viewBox="0 0 75 74.999997" height="100" preserveAspectRatio="xMidYMid meet" version="1.0">
  <defs>
    <clipPath id="13bc09a836">
      <path d="M 7.5 7.5 L 67.5 7.5 L 67.5 67.5 L 7.5 67.5 Z M 7.5 7.5 " clip-rule="nonzero"/>
    </clipPath>
  </defs>
  <rect x="-7.5" width="90" fill="#ffffff" y="-7.5" height="89.999996" fill-opacity="1"/>
  <rect x="-7.5" width="90" fill="#ffffff" y="-7.5" height="89.999996" fill-opacity="1"/>
  <g clip-path="url(#13bc09a836)">
    <path fill="#7e64ed" d="M 51.042969 59.023438 C 46.535156 62.882812 40.796875 65.007812 34.882812 65.007812 C 26.574219 65.007812 18.972656 60.902344 14.363281 54.140625 L 22.109375 56.25 C 22.785156 56.445312 23.457031 56.042969 23.636719 55.378906 C 23.816406 54.714844 23.425781 54.03125 22.765625 53.847656 L 12.144531 50.957031 C 11.917969 50.863281 11.671875 50.835938 11.421875 50.882812 C 11.386719 50.890625 11.355469 50.902344 11.320312 50.910156 C 11.246094 50.933594 11.164062 50.9375 11.085938 50.976562 C 11.046875 50.996094 11.023438 51.035156 10.988281 51.054688 C 10.953125 51.074219 10.914062 51.078125 10.882812 51.101562 C 10.832031 51.136719 10.8125 51.191406 10.769531 51.230469 C 10.734375 51.269531 10.699219 51.308594 10.667969 51.351562 C 10.503906 51.554688 10.386719 51.792969 10.371094 52.058594 L 9.984375 62.472656 C 9.960938 63.160156 10.496094 63.738281 11.183594 63.761719 L 11.230469 63.761719 C 11.898438 63.761719 12.445312 63.234375 12.472656 62.566406 L 12.714844 56.144531 C 17.820312 63.226562 25.988281 67.496094 34.882812 67.496094 C 41.386719 67.496094 47.699219 65.164062 52.660156 60.917969 C 53.183594 60.46875 53.246094 59.683594 52.796875 59.164062 C 52.351562 58.640625 51.570312 58.582031 51.042969 59.023438 Z M 10.421875 44.652344 C 10.128906 43.070312 9.988281 41.585938 9.988281 40.113281 C 9.988281 27.007812 20.167969 16.261719 33.03125 15.308594 L 27.777344 20.5625 C 27.292969 21.046875 27.292969 21.835938 27.777344 22.320312 C 28.023438 22.5625 28.339844 22.683594 28.660156 22.683594 C 28.976562 22.683594 29.296875 22.5625 29.539062 22.320312 L 36.789062 15.070312 C 37.039062 14.910156 37.21875 14.664062 37.304688 14.367188 C 37.308594 14.351562 37.3125 14.335938 37.316406 14.316406 C 37.332031 14.238281 37.367188 14.167969 37.371094 14.089844 C 37.375 14.03125 37.351562 13.976562 37.34375 13.917969 C 37.34375 13.867188 37.367188 13.820312 37.359375 13.769531 C 37.347656 13.722656 37.316406 13.6875 37.300781 13.640625 C 37.289062 13.609375 37.277344 13.578125 37.261719 13.550781 C 37.152344 13.257812 36.96875 13 36.679688 12.859375 L 26.722656 7.878906 C 26.109375 7.578125 25.363281 7.820312 25.054688 8.4375 C 24.75 9.050781 24.996094 9.796875 25.613281 10.105469 L 31.359375 12.980469 C 17.921875 14.71875 7.496094 26.210938 7.496094 40.113281 C 7.496094 41.738281 7.652344 43.371094 7.972656 45.105469 C 8.082031 45.707031 8.609375 46.125 9.195312 46.125 C 9.269531 46.125 9.347656 46.117188 9.425781 46.105469 C 10.097656 45.976562 10.546875 45.328125 10.421875 44.652344 Z M 67.078125 48.1875 C 66.722656 47.59375 65.949219 47.40625 65.367188 47.757812 L 60 50.964844 C 61.484375 47.546875 62.269531 43.867188 62.269531 40.113281 C 62.269531 28.550781 54.933594 18.183594 44.011719 14.320312 C 43.363281 14.09375 42.652344 14.429688 42.421875 15.074219 C 42.195312 15.722656 42.535156 16.433594 43.179688 16.664062 C 53.109375 20.179688 59.78125 29.601562 59.78125 40.113281 C 59.78125 43.753906 58.96875 47.320312 57.433594 50.601562 L 56.023438 43.601562 C 55.886719 42.925781 55.222656 42.484375 54.554688 42.625 C 53.882812 42.761719 53.445312 43.417969 53.582031 44.09375 L 55.632812 54.273438 C 55.644531 54.554688 55.742188 54.820312 55.929688 55.035156 C 55.933594 55.042969 55.9375 55.042969 55.941406 55.046875 C 56.015625 55.132812 56.082031 55.21875 56.183594 55.28125 C 56.214844 55.300781 56.253906 55.292969 56.285156 55.3125 C 56.328125 55.335938 56.355469 55.378906 56.398438 55.398438 C 56.558594 55.46875 56.730469 55.503906 56.902344 55.503906 C 57.125 55.503906 57.34375 55.445312 57.542969 55.332031 L 66.644531 49.894531 C 67.234375 49.542969 67.429688 48.777344 67.078125 48.1875 Z M 67.078125 48.1875 " fill-opacity="1" fill-rule="nonzero"/>
  </g>
</svg>