<svg xmlns="http://www.w3.org/2000/svg" xmlns:xlink="http://www.w3.org/1999/xlink" width="100" zoomAndPan="magnify" viewBox="0 0 75 74.999997" height="100" preserveAspectRatio="xMidYMid meet" version="1.0">
  <defs>
    <clipPath id="f2182b0127">
      <path d="M 7.5 16 L 59 16 L 59 66.976562 L 7.5 66.976562 Z M 7.5 16 " clip-rule="nonzero"/>
    </clipPath>
    <clipPath id="089ce6f983">
      <path d="M 33 7.726562 L 67.5 7.726562 L 67.5 43 L 33 43 Z M 33 7.726562 " clip-rule="nonzero"/>
    </clipPath>
  </defs>
  <rect x="-7.5" width="90" fill="#ffffff" y="-7.5" height="89.999996" fill-opacity="1"/>
  <rect x="-7.5" width="90" fill="#ffffff" y="-7.5" height="89.999996" fill-opacity="1"/>
  <g clip-path="url(#f2182b0127)">
    <path fill="#7e64ed" d="M 46.9375 22.1875 L 45.050781 20.984375 L 45.117188 21.023438 L 43.128906 20 L 43.199219 20.03125 L 41.128906 19.1875 L 41.203125 19.214844 L 39.0625 18.5625 L 39.136719 18.582031 L 36.945312 18.128906 L 37.023438 18.140625 L 34.800781 17.886719 L 34.878906 17.890625 L 32.640625 17.835938 L 32.71875 17.835938 L 30.484375 17.984375 L 30.5625 17.976562 L 28.351562 18.324219 L 28.429688 18.308594 L 26.257812 18.859375 L 26.335938 18.835938 L 24.222656 19.578125 L 24.296875 19.550781 L 22.261719 20.480469 L 22.328125 20.445312 L 20.386719 21.554688 L 20.453125 21.511719 L 18.617188 22.792969 L 18.679688 22.746094 L 16.96875 24.1875 L 17.027344 24.136719 L 15.453125 25.726562 L 15.503906 25.667969 L 14.082031 27.394531 L 14.128906 27.332031 L 12.867188 29.179688 L 12.90625 29.113281 L 11.816406 31.066406 L 11.851562 31 L 10.945312 33.042969 L 10.972656 32.972656 L 10.253906 35.089844 L 10.273438 35.015625 L 9.75 37.191406 L 9.761719 37.113281 L 9.4375 39.328125 L 9.445312 39.25 L 9.320312 41.484375 L 9.320312 41.40625 L 9.398438 43.640625 L 9.390625 43.5625 L 9.667969 45.785156 L 9.65625 45.707031 L 10.132812 47.894531 L 10.113281 47.816406 L 10.789062 49.953125 L 10.761719 49.878906 L 11.625 51.941406 L 11.59375 51.871094 L 12.640625 53.847656 L 12.597656 53.78125 L 13.820312 55.65625 L 13.777344 55.59375 L 15.160156 57.351562 L 15.109375 57.292969 L 16.648438 58.917969 L 16.59375 58.863281 L 18.273438 60.339844 L 18.210938 60.292969 L 20.019531 61.613281 L 19.953125 61.570312 L 21.832031 62.699219 L 21.761719 62.664062 L 23.734375 63.621094 L 23.664062 63.589844 L 25.707031 64.371094 L 25.636719 64.347656 L 27.742188 64.945312 L 27.667969 64.929688 L 29.820312 65.335938 L 29.746094 65.324219 L 31.925781 65.542969 L 31.847656 65.539062 L 34.039062 65.558594 L 33.960938 65.5625 L 36.144531 65.390625 L 36.070312 65.402344 L 38.230469 65.039062 L 38.15625 65.054688 L 40.273438 64.5 L 40.203125 64.523438 L 42.261719 63.785156 L 42.191406 63.8125 L 44.179688 62.894531 L 44.113281 62.929688 L 46.011719 61.839844 L 45.949219 61.878906 L 47.742188 60.625 L 47.683594 60.671875 L 49.359375 59.265625 L 49.304688 59.316406 L 50.851562 57.765625 L 50.800781 57.820312 L 52.203125 56.140625 L 52.15625 56.199219 L 53.40625 54.402344 L 53.363281 54.464844 L 54.449219 52.5625 L 54.414062 52.632812 L 55.328125 50.640625 L 55.296875 50.710938 L 56.03125 48.648438 L 56.007812 48.71875 L 56.554688 46.597656 L 56.539062 46.671875 L 56.898438 44.511719 L 56.886719 44.589844 L 57.050781 42.40625 L 57.050781 42.480469 L 57.019531 40.289062 L 57.023438 40.367188 L 56.800781 38.1875 L 56.8125 38.265625 L 56.398438 36.113281 L 56.417969 36.1875 L 55.8125 34.082031 L 55.835938 34.15625 L 55.050781 32.109375 L 55.082031 32.179688 L 54.117188 30.214844 L 54.152344 30.28125 L 53.019531 28.40625 C 52.769531 28 52.902344 27.46875 53.308594 27.222656 C 53.714844 26.976562 54.246094 27.105469 54.492188 27.515625 L 55.628906 29.386719 C 55.640625 29.410156 55.652344 29.433594 55.664062 29.453125 L 56.628906 31.421875 C 56.640625 31.445312 56.652344 31.46875 56.660156 31.492188 L 57.445312 33.535156 C 57.457031 33.558594 57.464844 33.582031 57.472656 33.605469 L 58.074219 35.710938 C 58.082031 35.738281 58.085938 35.761719 58.09375 35.785156 L 58.507812 37.9375 C 58.511719 37.960938 58.515625 37.988281 58.519531 38.011719 L 58.742188 40.191406 C 58.742188 40.21875 58.746094 40.242188 58.746094 40.269531 L 58.773438 42.457031 C 58.773438 42.484375 58.773438 42.507812 58.773438 42.535156 L 58.605469 44.71875 C 58.605469 44.742188 58.601562 44.769531 58.597656 44.792969 L 58.242188 46.953125 C 58.238281 46.980469 58.230469 47.003906 58.226562 47.03125 L 57.679688 49.148438 C 57.671875 49.175781 57.664062 49.199219 57.65625 49.222656 L 56.921875 51.289062 C 56.914062 51.3125 56.90625 51.335938 56.894531 51.359375 L 55.980469 53.347656 C 55.972656 53.371094 55.960938 53.394531 55.945312 53.417969 L 54.863281 55.320312 C 54.851562 55.34375 54.835938 55.363281 54.820312 55.382812 L 53.574219 57.183594 C 53.558594 57.203125 53.542969 57.226562 53.527344 57.246094 L 52.125 58.925781 C 52.105469 58.945312 52.089844 58.964844 52.070312 58.984375 L 50.527344 60.535156 C 50.507812 60.550781 50.488281 60.570312 50.46875 60.585938 L 48.792969 61.992188 C 48.773438 62.007812 48.753906 62.023438 48.730469 62.039062 L 46.9375 63.292969 C 46.914062 63.308594 46.894531 63.320312 46.871094 63.335938 L 44.972656 64.425781 C 44.949219 64.4375 44.925781 64.449219 44.902344 64.460938 L 42.914062 65.378906 C 42.890625 65.390625 42.867188 65.398438 42.84375 65.40625 L 40.78125 66.144531 C 40.757812 66.15625 40.734375 66.160156 40.710938 66.167969 L 38.589844 66.722656 C 38.566406 66.726562 38.542969 66.734375 38.515625 66.738281 L 36.355469 67.101562 C 36.332031 67.105469 36.304688 67.109375 36.28125 67.109375 L 34.097656 67.28125 C 34.070312 67.285156 34.046875 67.285156 34.019531 67.285156 L 31.832031 67.261719 C 31.804688 67.261719 31.78125 67.261719 31.753906 67.257812 L 29.574219 67.042969 C 29.550781 67.039062 29.523438 67.035156 29.5 67.03125 L 27.347656 66.621094 C 27.324219 66.617188 27.296875 66.613281 27.273438 66.605469 L 25.167969 66.007812 C 25.140625 66 25.117188 65.992188 25.09375 65.984375 L 23.046875 65.203125 C 23.023438 65.191406 23 65.183594 22.976562 65.171875 L 21.007812 64.214844 C 20.984375 64.203125 20.964844 64.191406 20.941406 64.175781 L 19.066406 63.046875 C 19.042969 63.035156 19.019531 63.019531 19 63.003906 L 17.195312 61.683594 C 17.171875 61.667969 17.152344 61.652344 17.132812 61.632812 L 15.453125 60.15625 C 15.433594 60.140625 15.414062 60.121094 15.398438 60.101562 L 13.859375 58.476562 C 13.839844 58.457031 13.824219 58.4375 13.808594 58.417969 L 12.421875 56.660156 C 12.40625 56.640625 12.390625 56.621094 12.375 56.597656 L 11.15625 54.722656 C 11.140625 54.703125 11.128906 54.679688 11.113281 54.65625 L 10.066406 52.679688 C 10.054688 52.65625 10.042969 52.632812 10.035156 52.609375 L 9.171875 50.542969 C 9.160156 50.519531 9.152344 50.496094 9.144531 50.472656 L 8.46875 48.335938 C 8.460938 48.3125 8.457031 48.285156 8.449219 48.261719 L 7.972656 46.074219 C 7.964844 46.050781 7.960938 46.023438 7.957031 46 L 7.679688 43.777344 C 7.675781 43.753906 7.675781 43.726562 7.671875 43.699219 L 7.597656 41.464844 C 7.59375 41.4375 7.597656 41.414062 7.597656 41.386719 L 7.722656 39.152344 C 7.722656 39.125 7.726562 39.101562 7.730469 39.074219 L 8.058594 36.859375 C 8.0625 36.835938 8.066406 36.808594 8.074219 36.785156 L 8.597656 34.609375 C 8.605469 34.585938 8.613281 34.558594 8.621094 34.535156 L 9.339844 32.414062 C 9.347656 32.390625 9.359375 32.367188 9.367188 32.34375 L 10.277344 30.296875 C 10.289062 30.273438 10.300781 30.25 10.3125 30.230469 L 11.402344 28.273438 C 11.414062 28.25 11.425781 28.230469 11.441406 28.207031 L 12.703125 26.359375 C 12.71875 26.339844 12.734375 26.316406 12.75 26.296875 L 14.175781 24.570312 C 14.191406 24.550781 14.207031 24.53125 14.226562 24.511719 L 15.800781 22.921875 C 15.820312 22.902344 15.839844 22.886719 15.859375 22.871094 L 17.570312 21.429688 C 17.589844 21.410156 17.609375 21.394531 17.632812 21.378906 L 19.464844 20.097656 C 19.488281 20.085938 19.507812 20.070312 19.53125 20.058594 L 21.472656 18.945312 C 21.496094 18.933594 21.519531 18.921875 21.542969 18.910156 L 23.578125 17.980469 C 23.601562 17.96875 23.625 17.960938 23.652344 17.953125 L 25.761719 17.210938 C 25.785156 17.199219 25.8125 17.195312 25.835938 17.1875 L 28.007812 16.640625 C 28.03125 16.632812 28.058594 16.628906 28.082031 16.621094 L 30.292969 16.273438 C 30.320312 16.269531 30.34375 16.265625 30.371094 16.265625 L 32.601562 16.113281 C 32.628906 16.113281 32.65625 16.113281 32.679688 16.113281 L 34.917969 16.167969 C 34.945312 16.167969 34.96875 16.167969 34.996094 16.171875 L 37.21875 16.425781 C 37.246094 16.429688 37.269531 16.433594 37.296875 16.441406 L 39.488281 16.894531 C 39.511719 16.898438 39.539062 16.90625 39.5625 16.914062 L 41.703125 17.566406 C 41.726562 17.574219 41.753906 17.582031 41.777344 17.589844 L 43.851562 18.433594 C 43.875 18.441406 43.898438 18.453125 43.921875 18.464844 L 45.910156 19.492188 C 45.933594 19.503906 45.957031 19.515625 45.976562 19.53125 L 47.863281 20.730469 C 48.265625 20.988281 48.386719 21.519531 48.128906 21.921875 C 47.875 22.324219 47.339844 22.441406 46.9375 22.1875 Z M 46.9375 22.1875 " fill-opacity="1" fill-rule="nonzero"/>
  </g>
  <path fill="#7e64ed" d="M 40.90625 29.015625 L 39.730469 28.386719 L 39.800781 28.421875 L 38.574219 27.898438 L 38.644531 27.925781 L 37.378906 27.511719 L 37.453125 27.53125 L 36.15625 27.230469 L 36.230469 27.246094 L 34.910156 27.058594 L 34.984375 27.066406 L 33.65625 27 L 33.730469 27 L 32.402344 27.046875 L 32.476562 27.042969 L 31.15625 27.207031 L 31.230469 27.195312 L 29.925781 27.476562 L 30 27.457031 L 28.726562 27.851562 L 28.800781 27.828125 L 27.566406 28.332031 L 27.636719 28.300781 L 26.453125 28.910156 L 26.519531 28.875 L 25.394531 29.585938 L 25.457031 29.542969 L 24.398438 30.351562 L 24.457031 30.304688 L 23.472656 31.203125 L 23.527344 31.148438 L 22.628906 32.132812 L 22.675781 32.074219 L 21.867188 33.128906 L 21.910156 33.066406 L 21.195312 34.191406 L 21.234375 34.125 L 20.621094 35.308594 L 20.652344 35.242188 L 20.144531 36.472656 L 20.171875 36.402344 L 19.777344 37.671875 L 19.796875 37.601562 L 19.511719 38.902344 L 19.527344 38.828125 L 19.359375 40.148438 L 19.367188 40.074219 L 19.316406 41.402344 L 19.316406 41.328125 L 19.382812 42.660156 L 19.375 42.582031 L 19.558594 43.902344 L 19.542969 43.828125 L 19.84375 45.125 L 19.824219 45.050781 L 20.234375 46.320312 L 20.210938 46.246094 L 20.730469 47.472656 L 20.699219 47.40625 L 21.324219 48.578125 L 21.285156 48.515625 L 22.015625 49.628906 L 21.96875 49.566406 L 22.824219 50.648438 L 22.773438 50.589844 L 23.722656 51.589844 L 23.664062 51.535156 L 24.699219 52.445312 L 24.640625 52.394531 L 25.753906 53.207031 L 25.6875 53.164062 L 26.871094 53.871094 L 26.800781 53.832031 L 28.046875 54.429688 L 27.972656 54.398438 L 29.265625 54.878906 L 29.191406 54.855469 L 30.519531 55.214844 L 30.441406 55.199219 L 31.800781 55.4375 L 31.722656 55.425781 L 33.097656 55.542969 L 33.019531 55.539062 L 34.394531 55.527344 L 34.316406 55.53125 L 35.6875 55.394531 L 35.613281 55.40625 L 36.964844 55.144531 L 36.890625 55.164062 L 38.210938 54.78125 L 38.136719 54.804688 L 39.421875 54.304688 L 39.351562 54.335938 L 40.582031 53.71875 L 40.515625 53.757812 L 41.6875 53.03125 L 41.621094 53.074219 L 42.722656 52.246094 L 42.660156 52.296875 L 43.683594 51.371094 L 43.625 51.425781 L 44.558594 50.410156 L 44.507812 50.472656 L 45.34375 49.375 L 45.300781 49.4375 L 46.03125 48.273438 L 45.992188 48.339844 L 46.617188 47.113281 L 46.585938 47.183594 L 47.09375 45.902344 L 47.070312 45.976562 L 47.460938 44.65625 L 47.441406 44.730469 L 47.710938 43.378906 L 47.699219 43.457031 L 47.84375 42.085938 L 47.835938 42.164062 L 47.855469 40.785156 L 47.859375 40.863281 L 47.753906 39.492188 L 47.761719 39.566406 L 47.53125 38.210938 L 47.550781 38.285156 L 47.195312 36.953125 L 47.21875 37.027344 L 46.746094 35.734375 C 46.582031 35.289062 46.8125 34.792969 47.261719 34.628906 C 47.707031 34.464844 48.203125 34.695312 48.367188 35.144531 L 48.839844 36.4375 C 48.847656 36.460938 48.855469 36.488281 48.863281 36.511719 L 49.214844 37.84375 C 49.222656 37.871094 49.226562 37.894531 49.234375 37.921875 L 49.464844 39.28125 C 49.46875 39.304688 49.46875 39.332031 49.472656 39.359375 L 49.578125 40.730469 C 49.582031 40.757812 49.582031 40.785156 49.582031 40.808594 L 49.5625 42.1875 C 49.5625 42.214844 49.558594 42.242188 49.558594 42.265625 L 49.414062 43.636719 C 49.410156 43.664062 49.40625 43.691406 49.402344 43.714844 L 49.132812 45.066406 C 49.125 45.09375 49.121094 45.117188 49.113281 45.144531 L 48.722656 46.464844 C 48.714844 46.488281 48.707031 46.515625 48.695312 46.539062 L 48.1875 47.820312 C 48.175781 47.84375 48.167969 47.867188 48.15625 47.890625 L 47.53125 49.121094 C 47.519531 49.144531 47.507812 49.167969 47.492188 49.1875 L 46.761719 50.355469 C 46.746094 50.378906 46.730469 50.398438 46.714844 50.421875 L 45.878906 51.515625 C 45.863281 51.539062 45.847656 51.558594 45.828125 51.578125 L 44.898438 52.59375 C 44.878906 52.609375 44.859375 52.628906 44.839844 52.648438 L 43.820312 53.574219 C 43.800781 53.589844 43.78125 53.609375 43.761719 53.625 L 42.660156 54.453125 C 42.636719 54.46875 42.617188 54.484375 42.59375 54.496094 L 41.421875 55.222656 C 41.402344 55.238281 41.378906 55.25 41.355469 55.261719 L 40.121094 55.878906 C 40.097656 55.890625 40.074219 55.898438 40.050781 55.910156 L 38.765625 56.410156 C 38.742188 56.421875 38.71875 56.429688 38.691406 56.4375 L 37.367188 56.820312 C 37.34375 56.828125 37.316406 56.832031 37.292969 56.839844 L 35.9375 57.097656 C 35.914062 57.105469 35.886719 57.109375 35.859375 57.109375 L 34.488281 57.246094 C 34.460938 57.25 34.4375 57.25 34.410156 57.25 L 33.03125 57.261719 C 33.007812 57.261719 32.980469 57.261719 32.953125 57.257812 L 31.582031 57.144531 C 31.554688 57.144531 31.527344 57.140625 31.503906 57.136719 L 30.144531 56.898438 C 30.117188 56.890625 30.09375 56.886719 30.066406 56.878906 L 28.738281 56.519531 C 28.710938 56.511719 28.6875 56.503906 28.664062 56.496094 L 27.371094 56.015625 C 27.347656 56.003906 27.324219 55.996094 27.300781 55.984375 L 26.054688 55.386719 C 26.03125 55.375 26.011719 55.363281 25.988281 55.351562 L 24.804688 54.644531 C 24.78125 54.628906 24.757812 54.617188 24.738281 54.601562 L 23.625 53.789062 C 23.601562 53.773438 23.582031 53.757812 23.5625 53.738281 L 22.527344 52.832031 C 22.507812 52.8125 22.488281 52.796875 22.472656 52.777344 L 21.523438 51.777344 C 21.503906 51.757812 21.488281 51.738281 21.46875 51.71875 L 20.617188 50.636719 C 20.601562 50.613281 20.585938 50.59375 20.570312 50.574219 L 19.84375 49.457031 C 19.828125 49.4375 19.816406 49.414062 19.804688 49.390625 L 19.175781 48.21875 C 19.164062 48.195312 19.152344 48.171875 19.144531 48.148438 L 18.621094 46.921875 C 18.613281 46.898438 18.605469 46.875 18.597656 46.851562 L 18.183594 45.585938 C 18.175781 45.5625 18.167969 45.539062 18.164062 45.511719 L 17.863281 44.214844 C 17.859375 44.191406 17.855469 44.164062 17.851562 44.140625 L 17.667969 42.820312 C 17.664062 42.796875 17.660156 42.769531 17.660156 42.746094 L 17.59375 41.414062 C 17.589844 41.390625 17.589844 41.363281 17.59375 41.339844 L 17.640625 40.007812 C 17.644531 39.984375 17.644531 39.957031 17.648438 39.933594 L 17.816406 38.609375 C 17.820312 38.585938 17.824219 38.5625 17.828125 38.535156 L 18.109375 37.234375 C 18.117188 37.210938 18.121094 37.183594 18.128906 37.160156 L 18.527344 35.890625 C 18.53125 35.863281 18.542969 35.839844 18.550781 35.816406 L 19.058594 34.585938 C 19.066406 34.5625 19.078125 34.539062 19.089844 34.515625 L 19.703125 33.335938 C 19.714844 33.3125 19.726562 33.289062 19.738281 33.269531 L 20.453125 32.144531 C 20.46875 32.121094 20.480469 32.101562 20.496094 32.082031 L 21.308594 31.023438 C 21.324219 31.003906 21.339844 30.984375 21.355469 30.964844 L 22.253906 29.984375 C 22.273438 29.964844 22.289062 29.949219 22.308594 29.929688 L 23.292969 29.03125 C 23.3125 29.015625 23.332031 29 23.351562 28.984375 L 24.410156 28.171875 C 24.429688 28.15625 24.449219 28.144531 24.46875 28.128906 L 25.59375 27.417969 C 25.617188 27.402344 25.640625 27.390625 25.660156 27.378906 L 26.84375 26.769531 C 26.867188 26.757812 26.890625 26.746094 26.914062 26.734375 L 28.144531 26.230469 C 28.167969 26.222656 28.195312 26.214844 28.21875 26.207031 L 29.488281 25.8125 C 29.515625 25.804688 29.539062 25.796875 29.5625 25.792969 L 30.863281 25.511719 C 30.890625 25.503906 30.914062 25.5 30.941406 25.496094 L 32.261719 25.332031 C 32.285156 25.328125 32.3125 25.328125 32.335938 25.324219 L 33.667969 25.277344 C 33.695312 25.277344 33.71875 25.277344 33.742188 25.277344 L 35.074219 25.34375 C 35.101562 25.347656 35.125 25.347656 35.148438 25.351562 L 36.46875 25.539062 C 36.492188 25.542969 36.519531 25.546875 36.542969 25.550781 L 37.839844 25.851562 C 37.867188 25.855469 37.890625 25.863281 37.914062 25.871094 L 39.179688 26.285156 C 39.203125 26.292969 39.226562 26.300781 39.25 26.3125 L 40.476562 26.835938 C 40.5 26.84375 40.523438 26.855469 40.546875 26.867188 L 41.71875 27.496094 C 42.140625 27.71875 42.296875 28.242188 42.074219 28.664062 C 41.847656 29.082031 41.324219 29.242188 40.90625 29.015625 Z M 40.90625 29.015625 " fill-opacity="1" fill-rule="nonzero"/>
  <path fill="#7e64ed" d="M 34.597656 36.070312 L 34.03125 35.964844 L 34.105469 35.976562 L 33.535156 35.921875 L 33.609375 35.925781 L 33.035156 35.917969 L 33.113281 35.917969 L 32.539062 35.960938 L 32.617188 35.953125 L 32.046875 36.050781 L 32.125 36.03125 L 31.566406 36.179688 L 31.640625 36.15625 L 31.097656 36.351562 L 31.167969 36.320312 L 30.648438 36.5625 L 30.714844 36.527344 L 30.21875 36.8125 L 30.28125 36.773438 L 29.8125 37.101562 L 29.871094 37.054688 L 29.429688 37.425781 L 29.488281 37.371094 L 29.082031 37.777344 L 29.132812 37.722656 L 28.761719 38.164062 L 28.808594 38.101562 L 28.480469 38.574219 L 28.523438 38.511719 L 28.238281 39.007812 L 28.273438 38.941406 L 28.03125 39.464844 L 28.058594 39.394531 L 27.867188 39.933594 L 27.890625 39.863281 L 27.742188 40.417969 L 27.761719 40.34375 L 27.664062 40.910156 L 27.675781 40.835938 L 27.628906 41.40625 L 27.632812 41.332031 L 27.636719 41.90625 L 27.632812 41.828125 L 27.691406 42.402344 L 27.679688 42.324219 L 27.785156 42.890625 L 27.769531 42.816406 L 27.925781 43.371094 L 27.898438 43.296875 L 28.105469 43.835938 L 28.074219 43.765625 L 28.324219 44.28125 L 28.289062 44.214844 L 28.582031 44.707031 L 28.542969 44.644531 L 28.878906 45.109375 L 28.832031 45.050781 L 29.210938 45.484375 L 29.15625 45.429688 L 29.574219 45.828125 L 29.515625 45.777344 L 29.964844 46.136719 L 29.902344 46.089844 L 30.378906 46.410156 L 30.316406 46.371094 L 30.820312 46.648438 L 30.75 46.613281 L 31.277344 46.84375 L 31.207031 46.816406 L 31.753906 47 L 31.679688 46.980469 L 32.238281 47.113281 L 32.164062 47.097656 L 32.734375 47.183594 L 32.65625 47.175781 L 33.230469 47.207031 L 33.15625 47.207031 L 33.730469 47.191406 L 33.652344 47.195312 L 34.226562 47.128906 L 34.148438 47.140625 L 34.710938 47.023438 L 34.640625 47.042969 L 35.1875 46.875 L 35.117188 46.898438 L 35.652344 46.683594 L 35.582031 46.714844 L 36.09375 46.453125 L 36.027344 46.492188 L 36.515625 46.1875 L 36.453125 46.230469 L 36.910156 45.882812 L 36.851562 45.929688 L 37.277344 45.542969 L 37.222656 45.597656 L 37.613281 45.175781 L 37.566406 45.234375 L 37.914062 44.777344 L 37.871094 44.839844 L 38.183594 44.355469 L 38.144531 44.421875 L 38.410156 43.914062 L 38.378906 43.980469 L 38.597656 43.449219 L 38.570312 43.519531 L 38.742188 42.972656 L 38.722656 43.046875 L 38.847656 42.484375 C 38.949219 42.019531 39.40625 41.722656 39.871094 41.824219 C 40.335938 41.925781 40.632812 42.386719 40.53125 42.851562 L 40.40625 43.414062 C 40.402344 43.4375 40.394531 43.464844 40.386719 43.488281 L 40.214844 44.035156 C 40.207031 44.0625 40.199219 44.085938 40.191406 44.109375 L 39.972656 44.640625 C 39.960938 44.664062 39.949219 44.6875 39.9375 44.707031 L 39.671875 45.21875 C 39.660156 45.242188 39.648438 45.261719 39.632812 45.285156 L 39.324219 45.769531 C 39.3125 45.789062 39.296875 45.8125 39.28125 45.832031 L 38.929688 46.289062 C 38.914062 46.308594 38.898438 46.328125 38.878906 46.34375 L 38.492188 46.769531 C 38.472656 46.785156 38.457031 46.804688 38.4375 46.820312 L 38.011719 47.207031 C 37.992188 47.226562 37.972656 47.242188 37.953125 47.257812 L 37.492188 47.605469 C 37.472656 47.621094 37.453125 47.632812 37.429688 47.648438 L 36.945312 47.953125 C 36.921875 47.964844 36.898438 47.980469 36.878906 47.992188 L 36.363281 48.253906 C 36.34375 48.265625 36.320312 48.273438 36.296875 48.285156 L 35.761719 48.5 C 35.738281 48.507812 35.714844 48.515625 35.691406 48.523438 L 35.140625 48.691406 C 35.117188 48.699219 35.089844 48.707031 35.066406 48.710938 L 34.503906 48.828125 C 34.476562 48.832031 34.453125 48.835938 34.429688 48.839844 L 33.855469 48.910156 C 33.832031 48.910156 33.804688 48.914062 33.78125 48.914062 L 33.207031 48.929688 C 33.179688 48.933594 33.15625 48.933594 33.128906 48.929688 L 32.554688 48.894531 C 32.53125 48.894531 32.503906 48.890625 32.480469 48.886719 L 31.910156 48.804688 C 31.886719 48.800781 31.859375 48.796875 31.835938 48.789062 L 31.277344 48.65625 C 31.253906 48.648438 31.226562 48.644531 31.203125 48.636719 L 30.660156 48.453125 C 30.632812 48.445312 30.609375 48.433594 30.585938 48.425781 L 30.058594 48.195312 C 30.035156 48.183594 30.015625 48.171875 29.992188 48.160156 L 29.488281 47.882812 C 29.464844 47.871094 29.445312 47.859375 29.421875 47.84375 L 28.945312 47.523438 C 28.921875 47.511719 28.902344 47.496094 28.882812 47.480469 L 28.433594 47.121094 C 28.414062 47.105469 28.394531 47.085938 28.378906 47.070312 L 27.960938 46.671875 C 27.945312 46.652344 27.925781 46.636719 27.910156 46.617188 L 27.53125 46.183594 C 27.515625 46.164062 27.5 46.144531 27.484375 46.121094 L 27.148438 45.65625 C 27.132812 45.636719 27.117188 45.617188 27.105469 45.59375 L 26.808594 45.101562 C 26.796875 45.078125 26.785156 45.054688 26.773438 45.035156 L 26.523438 44.515625 C 26.511719 44.492188 26.5 44.46875 26.492188 44.445312 L 26.289062 43.910156 C 26.28125 43.886719 26.269531 43.863281 26.265625 43.835938 L 26.109375 43.285156 C 26.101562 43.261719 26.097656 43.234375 26.089844 43.210938 L 25.984375 42.644531 C 25.980469 42.621094 25.976562 42.59375 25.972656 42.570312 L 25.917969 42 C 25.914062 41.972656 25.914062 41.949219 25.914062 41.921875 L 25.90625 41.347656 C 25.90625 41.324219 25.90625 41.296875 25.910156 41.273438 L 25.953125 40.699219 C 25.957031 40.671875 25.960938 40.648438 25.964844 40.625 L 26.058594 40.058594 C 26.0625 40.03125 26.070312 40.007812 26.074219 39.984375 L 26.21875 39.425781 C 26.226562 39.402344 26.234375 39.378906 26.242188 39.355469 L 26.4375 38.8125 C 26.445312 38.789062 26.453125 38.765625 26.464844 38.742188 L 26.707031 38.21875 C 26.714844 38.199219 26.726562 38.175781 26.738281 38.152344 L 27.027344 37.652344 C 27.039062 37.632812 27.050781 37.609375 27.066406 37.589844 L 27.394531 37.117188 C 27.410156 37.097656 27.425781 37.078125 27.441406 37.058594 L 27.808594 36.617188 C 27.824219 36.597656 27.84375 36.578125 27.859375 36.5625 L 28.265625 36.152344 C 28.285156 36.136719 28.304688 36.117188 28.324219 36.101562 L 28.761719 35.734375 C 28.78125 35.71875 28.804688 35.703125 28.824219 35.6875 L 29.292969 35.359375 C 29.316406 35.34375 29.335938 35.332031 29.359375 35.316406 L 29.859375 35.03125 C 29.878906 35.019531 29.902344 35.007812 29.925781 34.996094 L 30.445312 34.753906 C 30.46875 34.746094 30.492188 34.734375 30.515625 34.726562 L 31.058594 34.53125 C 31.082031 34.523438 31.105469 34.515625 31.128906 34.511719 L 31.6875 34.363281 C 31.710938 34.359375 31.734375 34.351562 31.761719 34.347656 L 32.328125 34.253906 C 32.351562 34.25 32.378906 34.246094 32.402344 34.242188 L 32.976562 34.199219 C 33 34.195312 33.027344 34.195312 33.050781 34.195312 L 33.625 34.199219 C 33.652344 34.199219 33.675781 34.203125 33.703125 34.203125 L 34.273438 34.261719 C 34.300781 34.261719 34.324219 34.265625 34.347656 34.269531 L 34.914062 34.375 C 35.382812 34.464844 35.691406 34.914062 35.601562 35.382812 C 35.515625 35.851562 35.0625 36.160156 34.597656 36.070312 Z M 34.597656 36.070312 " fill-opacity="1" fill-rule="nonzero"/>
  <g clip-path="url(#089ce6f983)">
    <path fill="#7e64ed" d="M 34.957031 41.40625 L 33.484375 40.664062 L 52.410156 20.792969 L 52.175781 21.445312 L 51.675781 14.191406 C 51.660156 13.941406 51.753906 13.691406 51.933594 13.515625 L 57.582031 7.980469 C 57.816406 7.753906 58.160156 7.675781 58.472656 7.785156 C 58.78125 7.890625 59 8.167969 59.042969 8.492188 L 59.886719 15.398438 L 59.128906 14.648438 L 66.65625 15.484375 C 66.976562 15.519531 67.246094 15.730469 67.363281 16.027344 C 67.480469 16.324219 67.425781 16.664062 67.214844 16.90625 L 62.746094 22.101562 C 62.578125 22.296875 62.335938 22.40625 62.082031 22.402344 L 53.027344 22.289062 C 52.550781 22.28125 52.167969 21.890625 52.175781 21.417969 C 52.179688 20.941406 52.570312 20.558594 53.046875 20.566406 L 62.101562 20.679688 L 61.4375 20.976562 L 65.910156 15.78125 L 66.46875 17.199219 L 58.9375 16.363281 C 58.539062 16.316406 58.226562 16.007812 58.175781 15.609375 L 57.332031 8.703125 L 58.789062 9.214844 L 53.140625 14.75 L 53.394531 14.074219 L 53.894531 21.328125 C 53.914062 21.570312 53.828125 21.804688 53.660156 21.980469 L 34.734375 41.851562 C 34.472656 42.128906 34.058594 42.199219 33.722656 42.027344 C 33.382812 41.859375 33.195312 41.484375 33.257812 41.113281 C 33.339844 40.644531 33.785156 40.328125 34.253906 40.410156 C 34.726562 40.492188 35.039062 40.9375 34.957031 41.40625 Z M 34.957031 41.40625 " fill-opacity="1" fill-rule="nonzero"/>
  </g>
</svg>