<svg xmlns="http://www.w3.org/2000/svg" xmlns:xlink="http://www.w3.org/1999/xlink" width="537" zoomAndPan="magnify" viewBox="0 0 402.75 76.499998" height="102" preserveAspectRatio="xMidYMid meet" version="1.0">
  <defs>
    <g/>
    <clipPath id="cc7fb05401">
      <path d="M 16 23 L 401.316406 23 L 401.316406 49 L 16 49 Z M 16 23 " clip-rule="nonzero"/>
    </clipPath>
    <clipPath id="3de8a5354a">
      <path d="M 0.683594 5 L 12 5 L 12 20 L 0.683594 20 Z M 0.683594 5 " clip-rule="nonzero"/>
    </clipPath>
    <clipPath id="ae94db712d">
      <rect x="0" width="386" y="0" height="26"/>
    </clipPath>
  </defs>
  <g clip-path="url(#cc7fb05401)">
    <g transform="matrix(1, 0, 0, 1, 16, 23)">
      <g clip-path="url(#ae94db712d)">
        <g clip-path="url(#3de8a5354a)">
          <g fill="#ffffff" fill-opacity="1">
            <g transform="translate(0.738748, 19.755471)">
              <g>
                <path d="M 7.21875 -11.25 L 7.21875 0 L 4.109375 0 L 4.109375 -11.25 L 0.109375 -11.25 L 0.109375 -14.0625 L 11.21875 -14.0625 L 11.21875 -11.25 Z M 7.21875 -11.25 "/>
              </g>
            </g>
          </g>
        </g>
        <g fill="#ffffff" fill-opacity="1">
          <g transform="translate(27.946779, 19.755471)">
            <g>
              <path d="M 4.34375 -5.015625 L 4.34375 0 L 1.234375 0 L 1.234375 -14.0625 L 6.515625 -14.0625 C 7.273438 -14.0625 7.976562 -13.867188 8.625 -13.484375 C 9.28125 -13.109375 9.804688 -12.582031 10.203125 -11.90625 C 10.609375 -11.226562 10.8125 -10.441406 10.8125 -9.546875 C 10.8125 -8.765625 10.664062 -8.066406 10.375 -7.453125 C 10.082031 -6.847656 9.695312 -6.351562 9.21875 -5.96875 C 8.738281 -5.582031 8.203125 -5.316406 7.609375 -5.171875 L 11.640625 0 L 7.703125 0 L 4.359375 -5.015625 Z M 6 -11.625 L 4.34375 -11.625 L 4.34375 -7.46875 L 6 -7.46875 C 6.445312 -7.46875 6.867188 -7.644531 7.265625 -8 C 7.660156 -8.351562 7.859375 -8.867188 7.859375 -9.546875 C 7.859375 -10.191406 7.660156 -10.695312 7.265625 -11.0625 C 6.867188 -11.4375 6.445312 -11.625 6 -11.625 Z M 6 -11.625 "/>
            </g>
          </g>
        </g>
        <g fill="#ffffff" fill-opacity="1">
          <g transform="translate(55.216819, 19.755471)">
            <g>
              <path d="M 9.390625 -2.8125 L 9.390625 0 L 1.234375 0 L 1.234375 -14.0625 L 9.390625 -14.0625 L 9.390625 -11.25 L 4.34375 -11.25 L 4.34375 -8.453125 L 9.171875 -8.453125 L 9.171875 -5.640625 L 4.34375 -5.640625 L 4.34375 -2.8125 Z M 9.390625 -2.8125 "/>
            </g>
          </g>
        </g>
        <g fill="#ffffff" fill-opacity="1">
          <g transform="translate(81.722065, 19.755471)">
            <g>
              <path d="M 12.28125 0 L 9.171875 0 L 4.34375 -8.765625 L 4.34375 0 L 1.234375 0 L 1.234375 -14.0625 L 4.34375 -14.0625 L 9.171875 -5.296875 L 9.171875 -14.0625 L 12.28125 -14.0625 Z M 12.28125 0 "/>
            </g>
          </g>
        </g>
        <g fill="#ffffff" fill-opacity="1">
          <g transform="translate(111.121126, 19.755471)">
            <g>
              <path d="M 4.296875 -2.859375 L 5.234375 -2.859375 C 6.023438 -2.859375 6.722656 -3.039062 7.328125 -3.40625 C 7.929688 -3.78125 8.398438 -4.285156 8.734375 -4.921875 C 9.066406 -5.554688 9.234375 -6.257812 9.234375 -7.03125 C 9.234375 -7.8125 9.066406 -8.515625 8.734375 -9.140625 C 8.398438 -9.773438 7.929688 -10.273438 7.328125 -10.640625 C 6.722656 -11.003906 6.023438 -11.1875 5.234375 -11.1875 L 4.296875 -11.1875 Z M 1.234375 -14.0625 L 5.421875 -14.0625 C 6.410156 -14.0625 7.328125 -13.878906 8.171875 -13.515625 C 9.023438 -13.160156 9.765625 -12.664062 10.390625 -12.03125 C 11.023438 -11.394531 11.519531 -10.648438 11.875 -9.796875 C 12.226562 -8.941406 12.40625 -8.019531 12.40625 -7.03125 C 12.40625 -6.039062 12.226562 -5.117188 11.875 -4.265625 C 11.519531 -3.410156 11.03125 -2.664062 10.40625 -2.03125 C 9.78125 -1.394531 9.039062 -0.894531 8.1875 -0.53125 C 7.332031 -0.175781 6.410156 0 5.421875 0 L 1.234375 0 Z M 1.234375 -14.0625 "/>
            </g>
          </g>
        </g>
        <g fill="#ffffff" fill-opacity="1">
          <g transform="translate(140.127462, 19.755471)">
            <g>
              <path d="M 6.703125 -2.1875 C 7.023438 -2.1875 7.378906 -2.238281 7.765625 -2.34375 C 8.148438 -2.445312 8.484375 -2.617188 8.765625 -2.859375 C 9.054688 -3.097656 9.203125 -3.425781 9.203125 -3.84375 C 9.203125 -4.226562 9.050781 -4.535156 8.75 -4.765625 C 8.457031 -5.003906 8.066406 -5.195312 7.578125 -5.34375 C 7.097656 -5.5 6.570312 -5.640625 6 -5.765625 C 5.425781 -5.898438 4.847656 -6.0625 4.265625 -6.25 C 3.691406 -6.4375 3.164062 -6.679688 2.6875 -6.984375 C 2.207031 -7.285156 1.816406 -7.675781 1.515625 -8.15625 C 1.222656 -8.644531 1.078125 -9.257812 1.078125 -10 C 1.078125 -10.726562 1.226562 -11.359375 1.53125 -11.890625 C 1.832031 -12.421875 2.234375 -12.863281 2.734375 -13.21875 C 3.242188 -13.570312 3.8125 -13.832031 4.4375 -14 C 5.0625 -14.175781 5.691406 -14.265625 6.328125 -14.265625 C 7.285156 -14.265625 8.1875 -14.113281 9.03125 -13.8125 C 9.875 -13.507812 10.5625 -13.03125 11.09375 -12.375 C 11.625 -11.71875 11.898438 -10.851562 11.921875 -9.78125 L 8.9375 -9.78125 C 8.851562 -10.507812 8.597656 -11.015625 8.171875 -11.296875 C 7.742188 -11.578125 7.140625 -11.71875 6.359375 -11.71875 C 6.078125 -11.71875 5.773438 -11.671875 5.453125 -11.578125 C 5.128906 -11.484375 4.851562 -11.328125 4.625 -11.109375 C 4.394531 -10.898438 4.28125 -10.613281 4.28125 -10.25 C 4.28125 -9.894531 4.425781 -9.613281 4.71875 -9.40625 C 5.019531 -9.195312 5.410156 -9.023438 5.890625 -8.890625 C 6.367188 -8.753906 6.894531 -8.625 7.46875 -8.5 C 8.050781 -8.375 8.628906 -8.21875 9.203125 -8.03125 C 9.773438 -7.851562 10.300781 -7.609375 10.78125 -7.296875 C 11.269531 -6.992188 11.660156 -6.59375 11.953125 -6.09375 C 12.253906 -5.601562 12.40625 -4.972656 12.40625 -4.203125 C 12.40625 -3.367188 12.238281 -2.660156 11.90625 -2.078125 C 11.570312 -1.503906 11.125 -1.039062 10.5625 -0.6875 C 10.007812 -0.34375 9.382812 -0.0859375 8.6875 0.078125 C 8 0.242188 7.296875 0.328125 6.578125 0.328125 C 5.535156 0.328125 4.5625 0.15625 3.65625 -0.1875 C 2.757812 -0.539062 2.03125 -1.082031 1.46875 -1.8125 C 0.914062 -2.550781 0.632812 -3.488281 0.625 -4.625 L 3.765625 -4.625 C 3.804688 -3.789062 4.113281 -3.175781 4.6875 -2.78125 C 5.269531 -2.382812 5.941406 -2.1875 6.703125 -2.1875 Z M 6.703125 -2.1875 "/>
            </g>
          </g>
        </g>
        <g fill="#ffffff" fill-opacity="1">
          <g transform="translate(169.030451, 19.755471)">
            <g>
              <path d="M 9.390625 -2.8125 L 9.390625 0 L 1.234375 0 L 1.234375 -14.0625 L 9.390625 -14.0625 L 9.390625 -11.25 L 4.34375 -11.25 L 4.34375 -8.453125 L 9.171875 -8.453125 L 9.171875 -5.640625 L 4.34375 -5.640625 L 4.34375 -2.8125 Z M 9.390625 -2.8125 "/>
            </g>
          </g>
        </g>
        <g fill="#ffffff" fill-opacity="1">
          <g transform="translate(195.535697, 19.755471)">
            <g>
              <path d="M 7.21875 -11.25 L 7.21875 0 L 4.109375 0 L 4.109375 -11.25 L 0.109375 -11.25 L 0.109375 -14.0625 L 11.21875 -14.0625 L 11.21875 -11.25 Z M 7.21875 -11.25 "/>
            </g>
          </g>
        </g>
        <g fill="#ffffff" fill-opacity="1">
          <g transform="translate(222.743728, 19.755471)">
            <g/>
          </g>
        </g>
        <g fill="#ffffff" fill-opacity="1">
          <g transform="translate(243.792063, 19.755471)">
            <g>
              <path d="M 18.765625 0 L 15.359375 0 L 13.703125 -9.6875 L 10.953125 0 L 7.921875 0 L 5.171875 -9.6875 L 3.515625 0 L 0.109375 0 L 2.828125 -14.0625 L 6.515625 -14.0625 L 9.453125 -4.203125 L 12.359375 -14.0625 L 16.046875 -14.0625 Z M 18.765625 0 "/>
            </g>
          </g>
        </g>
        <g fill="#ffffff" fill-opacity="1">
          <g transform="translate(278.544702, 19.755471)">
            <g>
              <path d="M 9.390625 -2.8125 L 9.390625 0 L 1.234375 0 L 1.234375 -14.0625 L 9.390625 -14.0625 L 9.390625 -11.25 L 4.34375 -11.25 L 4.34375 -8.453125 L 9.171875 -8.453125 L 9.171875 -5.640625 L 4.34375 -5.640625 L 4.34375 -2.8125 Z M 9.390625 -2.8125 "/>
            </g>
          </g>
        </g>
        <g fill="#ffffff" fill-opacity="1">
          <g transform="translate(305.049934, 19.755471)">
            <g>
              <path d="M 4.296875 -2.859375 L 5.234375 -2.859375 C 6.023438 -2.859375 6.722656 -3.039062 7.328125 -3.40625 C 7.929688 -3.78125 8.398438 -4.285156 8.734375 -4.921875 C 9.066406 -5.554688 9.234375 -6.257812 9.234375 -7.03125 C 9.234375 -7.8125 9.066406 -8.515625 8.734375 -9.140625 C 8.398438 -9.773438 7.929688 -10.273438 7.328125 -10.640625 C 6.722656 -11.003906 6.023438 -11.1875 5.234375 -11.1875 L 4.296875 -11.1875 Z M 1.234375 -14.0625 L 5.421875 -14.0625 C 6.410156 -14.0625 7.328125 -13.878906 8.171875 -13.515625 C 9.023438 -13.160156 9.765625 -12.664062 10.390625 -12.03125 C 11.023438 -11.394531 11.519531 -10.648438 11.875 -9.796875 C 12.226562 -8.941406 12.40625 -8.019531 12.40625 -7.03125 C 12.40625 -6.039062 12.226562 -5.117188 11.875 -4.265625 C 11.519531 -3.410156 11.03125 -2.664062 10.40625 -2.03125 C 9.78125 -1.394531 9.039062 -0.894531 8.1875 -0.53125 C 7.332031 -0.175781 6.410156 0 5.421875 0 L 1.234375 0 Z M 1.234375 -14.0625 "/>
            </g>
          </g>
        </g>
        <g fill="#ffffff" fill-opacity="1">
          <g transform="translate(334.056285, 19.755471)">
            <g>
              <path d="M 4.34375 0 L 1.234375 0 L 1.234375 -14.0625 L 4.34375 -14.0625 Z M 4.34375 0 "/>
            </g>
          </g>
        </g>
        <g fill="#ffffff" fill-opacity="1">
          <g transform="translate(355.518028, 19.755471)">
            <g>
              <path d="M 8.890625 -5.375 L 7.109375 -10.375 L 5.328125 -5.375 Z M 14.140625 0 L 10.8125 0 L 9.796875 -2.828125 L 4.4375 -2.828125 L 3.4375 0 L 0.109375 0 L 5.8125 -14.0625 L 8.4375 -14.0625 Z M 14.140625 0 "/>
            </g>
          </g>
        </g>
      </g>
    </g>
  </g>
</svg>