<svg xmlns="http://www.w3.org/2000/svg" xmlns:xlink="http://www.w3.org/1999/xlink" width="100" zoomAndPan="magnify" viewBox="0 0 75 74.999997" height="100" preserveAspectRatio="xMidYMid meet" version="1.0">
  <defs>
    <clipPath id="e5f335624b">
      <path d="M 8.039062 8.039062 L 66.960938 8.039062 L 66.960938 66.960938 L 8.039062 66.960938 Z M 8.039062 8.039062 " clip-rule="nonzero"/>
    </clipPath>
    <clipPath id="fe59c8ac48">
      <path d="M 37.5 8.039062 C 21.230469 8.039062 8.039062 21.230469 8.039062 37.5 C 8.039062 53.769531 21.230469 66.960938 37.5 66.960938 C 53.769531 66.960938 66.960938 53.769531 66.960938 37.5 C 66.960938 21.230469 53.769531 8.039062 37.5 8.039062 Z M 37.5 8.039062 " clip-rule="nonzero"/>
    </clipPath>
    <clipPath id="3c2dd03ec4">
      <path d="M 0.0390625 0.0390625 L 58.960938 0.0390625 L 58.960938 58.960938 L 0.0390625 58.960938 Z M 0.0390625 0.0390625 " clip-rule="nonzero"/>
    </clipPath>
    <clipPath id="21b1818758">
      <path d="M 29.5 0.0390625 C 13.230469 0.0390625 0.0390625 13.230469 0.0390625 29.5 C 0.0390625 45.769531 13.230469 58.960938 29.5 58.960938 C 45.769531 58.960938 58.960938 45.769531 58.960938 29.5 C 58.960938 13.230469 45.769531 0.0390625 29.5 0.0390625 Z M 29.5 0.0390625 " clip-rule="nonzero"/>
    </clipPath>
    <clipPath id="94cf47c60a">
      <rect x="0" width="59" y="0" height="59"/>
    </clipPath>
    <clipPath id="9cb7eacd1c">
      <path d="M 7.5 7.5 L 67.5 7.5 L 67.5 67.5 L 7.5 67.5 Z M 7.5 7.5 " clip-rule="nonzero"/>
    </clipPath>
  </defs>
  <g clip-path="url(#e5f335624b)">
    <g clip-path="url(#fe59c8ac48)">
      <g transform="matrix(1, 0, 0, 1, 8, 8)">
        <g clip-path="url(#94cf47c60a)">
          <g clip-path="url(#3c2dd03ec4)">
            <g clip-path="url(#21b1818758)">
              <path fill="#1a111f" d="M 0.0390625 0.0390625 L 58.960938 0.0390625 L 58.960938 58.960938 L 0.0390625 58.960938 Z M 0.0390625 0.0390625 " fill-opacity="1" fill-rule="nonzero"/>
            </g>
          </g>
        </g>
      </g>
    </g>
  </g>
  <g clip-path="url(#9cb7eacd1c)">
    <path fill="#7e64ed" d="M 37.5 67.5 C 20.953125 67.5 7.5 54.046875 7.5 37.5 C 7.5 20.953125 20.953125 7.5 37.5 7.5 C 54.046875 7.5 67.5 20.953125 67.5 37.5 C 67.5 54.046875 54.046875 67.5 37.5 67.5 Z M 37.5 9.28125 C 21.9375 9.28125 9.28125 21.9375 9.28125 37.5 C 9.28125 53.0625 21.9375 65.71875 37.5 65.71875 C 53.0625 65.71875 65.71875 53.0625 65.71875 37.5 C 65.71875 21.9375 53.0625 9.28125 37.5 9.28125 Z M 37.5 9.28125 " fill-opacity="1" fill-rule="nonzero"/>
  </g>
  <path fill="#7e64ed" d="M 42.386719 33.503906 C 42.386719 34.472656 42.089844 35.285156 41.511719 35.96875 C 40.933594 36.640625 40.105469 37.109375 39.046875 37.359375 L 39.046875 37.421875 C 40.292969 37.578125 41.230469 37.953125 41.871094 38.5625 C 42.511719 39.171875 42.839844 39.980469 42.839844 40.996094 C 42.839844 42.480469 42.292969 43.632812 41.214844 44.460938 C 40.136719 45.289062 38.59375 45.710938 36.59375 45.710938 C 34.925781 45.710938 33.425781 45.429688 32.128906 44.882812 L 32.128906 42.105469 C 32.722656 42.402344 33.394531 42.652344 34.113281 42.839844 C 34.832031 43.027344 35.550781 43.117188 36.25 43.117188 C 37.328125 43.117188 38.125 42.933594 38.640625 42.574219 C 39.15625 42.214844 39.402344 41.621094 39.402344 40.808594 C 39.402344 40.089844 39.109375 39.574219 38.515625 39.265625 C 37.921875 38.953125 36.984375 38.8125 35.6875 38.8125 L 34.519531 38.8125 L 34.519531 36.3125 L 35.703125 36.3125 C 36.90625 36.3125 37.78125 36.15625 38.328125 35.84375 C 38.875 35.535156 39.15625 35.003906 39.15625 34.238281 C 39.15625 33.066406 38.421875 32.488281 36.953125 32.488281 C 36.453125 32.488281 35.921875 32.566406 35.410156 32.738281 C 34.878906 32.910156 34.300781 33.207031 33.660156 33.613281 L 32.144531 31.367188 C 33.550781 30.351562 35.238281 29.851562 37.1875 29.851562 C 38.78125 29.851562 40.042969 30.179688 40.980469 30.820312 C 41.917969 31.460938 42.386719 32.347656 42.386719 33.503906 Z M 42.386719 33.503906 " fill-opacity="1" fill-rule="nonzero"/>
</svg>