<svg xmlns="http://www.w3.org/2000/svg" xmlns:xlink="http://www.w3.org/1999/xlink" width="100" zoomAndPan="magnify" viewBox="0 0 75 74.999997" height="100" preserveAspectRatio="xMidYMid meet" version="1.0">
  <defs>
    <clipPath id="aaa4c9158d">
      <path d="M 9.042969 8.039062 L 65.957031 8.039062 L 65.957031 67 L 9.042969 67 Z M 9.042969 8.039062 " clip-rule="nonzero"/>
    </clipPath>
    <clipPath id="387152788a">
      <path d="M 37.5 8.039062 C 21.785156 8.039062 9.042969 21.230469 9.042969 37.5 C 9.042969 53.769531 21.785156 66.960938 37.5 66.960938 C 53.214844 66.960938 65.957031 53.769531 65.957031 37.5 C 65.957031 21.230469 53.214844 8.039062 37.5 8.039062 Z M 37.5 8.039062 " clip-rule="nonzero"/>
    </clipPath>
    <clipPath id="5ba42e97c2">
      <path d="M 0.0429688 0.0390625 L 56.957031 0.0390625 L 56.957031 59 L 0.0429688 59 Z M 0.0429688 0.0390625 " clip-rule="nonzero"/>
    </clipPath>
    <clipPath id="46a6b7e31b">
      <path d="M 28.5 0.0390625 C 12.785156 0.0390625 0.0429688 13.230469 0.0429688 29.5 C 0.0429688 45.769531 12.785156 58.960938 28.5 58.960938 C 44.214844 58.960938 56.957031 45.769531 56.957031 29.5 C 56.957031 13.230469 44.214844 0.0390625 28.5 0.0390625 Z M 28.5 0.0390625 " clip-rule="nonzero"/>
    </clipPath>
    <clipPath id="1fa5155943">
      <rect x="0" width="57" y="0" height="59"/>
    </clipPath>
    <clipPath id="aac29c391c">
      <path d="M 7.5 7.5 L 67.5 7.5 L 67.5 67.5 L 7.5 67.5 Z M 7.5 7.5 " clip-rule="nonzero"/>
    </clipPath>
  </defs>
  <g clip-path="url(#aaa4c9158d)">
    <g clip-path="url(#387152788a)">
      <g transform="matrix(1, 0, 0, 1, 9, 8)">
        <g clip-path="url(#1fa5155943)">
          <g clip-path="url(#5ba42e97c2)">
            <g clip-path="url(#46a6b7e31b)">
              <path fill="#1a111f" d="M 0.0429688 0.0390625 L 56.957031 0.0390625 L 56.957031 58.953125 L 0.0429688 58.953125 Z M 0.0429688 0.0390625 " fill-opacity="1" fill-rule="nonzero"/>
            </g>
          </g>
        </g>
      </g>
    </g>
  </g>
  <g clip-path="url(#aac29c391c)">
    <path fill="#7e64ed" d="M 37.5 67.5 C 20.953125 67.5 7.5 54.046875 7.5 37.5 C 7.5 20.953125 20.953125 7.5 37.5 7.5 C 54.046875 7.5 67.5 20.953125 67.5 37.5 C 67.5 54.046875 54.046875 67.5 37.5 67.5 Z M 37.5 9.28125 C 21.9375 9.28125 9.28125 21.9375 9.28125 37.5 C 9.28125 53.0625 21.9375 65.71875 37.5 65.71875 C 53.0625 65.71875 65.71875 53.0625 65.71875 37.5 C 65.71875 21.9375 53.0625 9.28125 37.5 9.28125 Z M 37.5 9.28125 " fill-opacity="1" fill-rule="nonzero"/>
  </g>
  <path fill="#7e64ed" d="M 42.996094 45.492188 L 32.191406 45.492188 L 32.191406 43.226562 L 36.0625 39.3125 C 37.21875 38.140625 37.96875 37.3125 38.3125 36.859375 C 38.671875 36.40625 38.921875 35.984375 39.078125 35.597656 C 39.234375 35.207031 39.3125 34.800781 39.3125 34.394531 C 39.3125 33.769531 39.140625 33.316406 38.796875 33.003906 C 38.453125 32.707031 38 32.550781 37.421875 32.550781 C 36.828125 32.550781 36.234375 32.691406 35.671875 32.957031 C 35.113281 33.238281 34.519531 33.628906 33.910156 34.128906 L 32.144531 32.035156 C 32.910156 31.398438 33.535156 30.929688 34.035156 30.664062 C 34.535156 30.398438 35.082031 30.195312 35.671875 30.039062 C 36.265625 29.898438 36.921875 29.820312 37.65625 29.820312 C 38.625 29.820312 39.464844 29.992188 40.214844 30.351562 C 40.949219 30.710938 41.527344 31.195312 41.933594 31.835938 C 42.339844 32.472656 42.542969 33.191406 42.542969 34.003906 C 42.542969 34.722656 42.417969 35.378906 42.167969 36 C 41.917969 36.625 41.527344 37.265625 41.011719 37.921875 C 40.480469 38.578125 39.558594 39.511719 38.234375 40.714844 L 36.25 42.589844 L 36.25 42.730469 L 42.980469 42.730469 L 42.980469 45.492188 Z M 42.996094 45.492188 " fill-opacity="1" fill-rule="nonzero"/>
</svg>